<?xml version="1.0" encoding="UTF-8" standalone="no"?>
<svg
   version="1.0"
   width="20"
   height="20"
   id="svg2"
   sodipodi:version="0.32"
   inkscape:version="1.1.1 (3bf5ae0d25, 2021-09-20)"
   sodipodi:docname="Airplane_GA_Black_small.svg"
   inkscape:output_extension="org.inkscape.output.svg.inkscape"
   xmlns:inkscape="http://www.inkscape.org/namespaces/inkscape"
   xmlns:sodipodi="http://sodipodi.sourceforge.net/DTD/sodipodi-0.dtd"
   xmlns="http://www.w3.org/2000/svg"
   xmlns:svg="http://www.w3.org/2000/svg"
   xmlns:rdf="http://www.w3.org/1999/02/22-rdf-syntax-ns#"
   xmlns:cc="http://creativecommons.org/ns#"
   xmlns:dc="http://purl.org/dc/elements/1.1/">
  <metadata
     id="metadata16">
    <rdf:RDF>
      <cc:Work
         rdf:about="">
        <dc:format>image/svg+xml</dc:format>
        <dc:type
           rdf:resource="http://purl.org/dc/dcmitype/StillImage" />
      </cc:Work>
    </rdf:RDF>
  </metadata>
  <sodipodi:namedview
     inkscape:window-height="1009"
     inkscape:window-width="1920"
     inkscape:pageshadow="2"
     inkscape:pageopacity="0.0"
     guidetolerance="10.0"
     gridtolerance="10.0"
     objecttolerance="10.0"
     borderopacity="1.0"
     bordercolor="#666666"
     pagecolor="#ffffff"
     id="base"
     showgrid="false"
     inkscape:zoom="11.55"
     inkscape:cx="-4.978355"
     inkscape:cy="10.779221"
     inkscape:window-x="1912"
     inkscape:window-y="-8"
     inkscape:current-layer="svg2"
     inkscape:window-maximized="1"
     inkscape:pagecheckerboard="0" />
  <defs
     id="defs4">
    <inkscape:perspective
       sodipodi:type="inkscape:persp3d"
       inkscape:vp_x="0 : 10 : 1"
       inkscape:vp_y="0 : 1000 : 0"
       inkscape:vp_z="20 : 10 : 1"
       inkscape:persp3d-origin="10 : 6.6666667 : 1"
       id="perspective18" />
    <filter
       id="filter">
      <feGaussianBlur
         stdDeviation="0.4858"
         id="feGaussianBlur7" />
    </filter>
  </defs>
  <path
     style="fill:#000000;stroke-width:0.8742"
     id="path13"
     d="m 10.090825,3.6559351 c 0.08329,5e-7 0.132539,0.057273 0.299397,0.5117378 0.01969,0.053642 0.05945,0.2824113 0.05945,0.2824113 -10e-7,0 0.133322,0.00637 0.167747,0.00637 0.06655,2.5e-6 0.156566,0.059342 0.201723,0.1316496 0.140101,0.224342 0.358854,1.459041 0.358854,2.02784 0,0.3529796 0.02957,0.5645342 0.08494,0.6072906 0.04672,0.036082 0.291687,0.1473182 0.543589,0.2463137 0.444473,0.1746754 0.555901,0.1850436 3.771148,0.356731 2.546178,0.1359615 3.347677,0.1999755 3.467501,0.2760404 0.332239,0.2109076 0.349537,0.6981931 0.05733,1.6201494 l -0.150762,0.4756401 c 0,0 -7.837443,1.297394 -7.837443,1.297394 l -0.658252,4.817979 0.174117,0.04884 c 0.09571,0.0265 0.738675,0.0972 1.429044,0.15713 0.69037,0.05992 1.294263,0.140883 1.341985,0.180489 0.191845,0.159218 0.04109,1.414181 -0.169872,1.41418 -0.332959,10e-7 -1.564016,0.165546 -1.628641,0.218709 -0.04614,0.03797 -1.1041,0.18049 -1.511857,0.180489 -0.4077559,1e-6 -1.4657157,-0.14253 -1.5118552,-0.180489 -0.064628,-0.05317 -1.2956841,-0.218708 -1.6286434,-0.218709 -0.210957,0 -0.3617169,-1.254962 -0.1698702,-1.41418 0.047743,-0.03958 0.6516128,-0.120558 1.341983,-0.180489 0.6903698,-0.05992 1.3333363,-0.130633 1.429045,-0.157131 l 0.1741186,-0.04884 -0.6582516,-4.817979 c 0,0 -7.8374451,-1.297395 -7.8374457,-1.297394 L 1.0791455,9.7224682 C 0.78694046,8.8005114 0.80423954,8.3132284 1.1364767,8.1023195 1.2563013,8.026254 2.0577992,7.9622391 4.6039773,7.8262784 7.8192251,7.6545898 7.9306524,7.6442224 8.3751231,7.4695489 8.6270259,7.3705523 8.8719967,7.259315 8.9187132,7.2232349 8.9740694,7.180478 9.0036465,6.9689235 9.0036483,6.615944 9.0036473,6.0471449 9.2223986,4.8124435 9.3625019,4.5881037 9.4076561,4.5157965 9.4976652,4.4564513 9.5642236,4.4564532 c 0.034428,-2.5e-6 0.1656256,-0.00637 0.1656256,-0.00637 0,0 0.03976,-0.2287705 0.059455,-0.2824108 C 9.956162,3.7132073 10.007533,3.6559339 10.090826,3.6559339 Z"
     inkscape:connector-curvature="0" />
</svg>
