<?xml version="1.0" encoding="UTF-8" standalone="no"?>
<svg
   xmlns:dc="http://purl.org/dc/elements/1.1/"
   xmlns:cc="http://creativecommons.org/ns#"
   xmlns:rdf="http://www.w3.org/1999/02/22-rdf-syntax-ns#"
   xmlns:svg="http://www.w3.org/2000/svg"
   xmlns="http://www.w3.org/2000/svg"
   xmlns:sodipodi="http://sodipodi.sourceforge.net/DTD/sodipodi-0.dtd"
   xmlns:inkscape="http://www.inkscape.org/namespaces/inkscape"
   version="1.0"
   width="20"
   height="20"
   id="svg2"
   sodipodi:version="0.32"
   inkscape:version="0.48.4 r9939"
   sodipodi:docname="Black_aicraft_icon.svg"
   inkscape:output_extension="org.inkscape.output.svg.inkscape">
  <metadata
     id="metadata16">
    <rdf:RDF>
      <cc:Work
         rdf:about="">
        <dc:format>image/svg+xml</dc:format>
        <dc:type
           rdf:resource="http://purl.org/dc/dcmitype/StillImage" />
        <dc:title></dc:title>
      </cc:Work>
    </rdf:RDF>
  </metadata>
  <sodipodi:namedview
     inkscape:window-height="597"
     inkscape:window-width="657"
     inkscape:pageshadow="2"
     inkscape:pageopacity="0.0"
     guidetolerance="10.0"
     gridtolerance="10.0"
     objecttolerance="10.0"
     borderopacity="1.0"
     bordercolor="#666666"
     pagecolor="#ffffff"
     id="base"
     showgrid="false"
     inkscape:zoom="11.55"
     inkscape:cx="9.9264795"
     inkscape:cy="10.772134"
     inkscape:window-x="203"
     inkscape:window-y="60"
     inkscape:current-layer="svg2"
     inkscape:window-maximized="0" />
  <defs
     id="defs4">
    <inkscape:perspective
       sodipodi:type="inkscape:persp3d"
       inkscape:vp_x="0 : 10 : 1"
       inkscape:vp_y="0 : 1000 : 0"
       inkscape:vp_z="20 : 10 : 1"
       inkscape:persp3d-origin="10 : 6.6666667 : 1"
       id="perspective18" />
    <filter
       id="filter">
      <feGaussianBlur
         stdDeviation="0.4858"
         id="feGaussianBlur7" />
    </filter>
  </defs>
  <path
     style="fill:#000000"
     id="path13"
     d="m 15.388371,4.7812376 c 0.06737,0.067371 0.06088,0.1535326 -0.171754,0.656096 -0.02746,0.059318 -0.18034,0.2765235 -0.18034,0.2765235 -10e-7,-1e-6 0.102687,0.1129918 0.130532,0.1408372 0.05383,0.053834 0.07864,0.1746392 0.05668,0.2696526 -0.06814,0.2947833 -0.8899,1.4704243 -1.349979,1.9305048 -0.285512,0.2855112 -0.432705,0.4805551 -0.422513,0.5599149 0.0086,0.06697 0.116774,0.3550941 0.240455,0.6389223 0.218228,0.5008044 0.299971,0.5993204 2.76179,3.3388821 1.949531,2.169479 2.546055,2.86956 2.58145,3.028007 0.09814,0.43933 -0.282015,0.847468 -1.264103,1.35685 l -0.506673,0.262782 c 0,0 -7.3888187,-5.289995 -7.3888187,-5.289995 l -4.429513,3.364643 0.101334,0.18034 c 0.055981,0.09885 0.518862,0.676109 1.028802,1.282996 0.509938,0.606889 0.932924,1.160835 0.939489,1.231471 0.026392,0.283961 -1.110644,1.177107 -1.281278,1.006472 -0.269318,-0.269317 -1.398977,-1.131169 -1.494252,-1.14044 -0.068024,-0.0066 -1.039054,-0.747073 -1.368872,-1.076892 -0.329819,-0.329818 -1.070274,-1.300849 -1.076892,-1.368872 -0.00927,-0.09528 -0.871124,-1.224934 -1.140441,-1.494253 -0.17063503,-0.170635 0.722512,-1.30767 1.006474,-1.281277 0.070635,0.0066 0.624579,0.42955 1.231469,0.939488 0.606887,0.50994 1.184148,0.972821 1.282997,1.028802 l 0.180339,0.101334 3.364644,-4.429513 c 0,0 -5.289996,-7.3888202 -5.289997,-7.3888202 l 0.262784,-0.506672 c 0.509382,-0.9820888 0.917519,-1.3622407 1.356849,-1.2641029 0.158448,0.035395 0.858528,0.6319166 3.028007,2.5814488 2.7395627,2.4618182 2.8380777,2.5435617 3.3388797,2.7617902 0.283829,0.1236801 0.571952,0.2318519 0.638923,0.2404552 0.07936,0.010191 0.274402,-0.1370033 0.559915,-0.4225135 0.460079,-0.4600805 1.635721,-1.2818435 1.930505,-1.3499793 0.09501,-0.021963 0.215817,0.00284 0.269652,0.056678 0.02785,0.027846 0.139121,0.1288154 0.139121,0.1288154 0,0 0.217204,-0.1528832 0.276522,-0.1803404 0.502564,-0.2326341 0.590442,-0.2374085 0.657815,-0.1700356 z"
     inkscape:connector-curvature="0" />
</svg>
